<?xml version="1.0" encoding="utf-8"?>
<!-- Generator: Adobe Illustrator 26.5.0, SVG Export Plug-In . SVG Version: 6.00 Build 0)  -->
<svg version="1.1" id="레이어_1" xmlns="http://www.w3.org/2000/svg" xmlns:xlink="http://www.w3.org/1999/xlink" x="0px"
	 y="0px" viewBox="0 0 24 24" style="enable-background:new 0 0 24 24;" xml:space="preserve">
<path d="M12.7,22.9L12.7,22.9 M16.5,22.9L16.5,22.9"/>
<path d="M23.8,6.3v11.2c0,3.4-2.8,6.2-6.2,6.2h-2.6v-7.4H18l0.5-3.6h-3.6v-2.4c0-1,0.3-1.8,1.8-1.8h1.9V5.3c-0.3,0-1.5-0.1-2.8-0.1
	c-2.8,0-4.7,1.7-4.7,4.8v2.7H8v3.6h3.1v7.4H6.3c-3.4,0-6.2-2.8-6.2-6.2V6.3c0-3.4,2.8-6.2,6.2-6.2h11.2C21,0.1,23.8,2.9,23.8,6.3z"
	/>
</svg>
