<?xml version="1.0" encoding="utf-8"?>
<!-- Generator: Adobe Illustrator 26.5.0, SVG Export Plug-In . SVG Version: 6.00 Build 0)  -->
<svg version="1.1" id="그룹_36" xmlns="http://www.w3.org/2000/svg" xmlns:xlink="http://www.w3.org/1999/xlink" x="0px" y="0px"
	 viewBox="0 0 151 151" style="enable-background:new 0 0 151 151;" xml:space="preserve">
<style type="text/css">
	.st0{fill:#1A1311;}
</style>
<g>
	<g id="그룹_28">
		<path id="패스_11" class="st0" d="M84.1,54.1L59.5,69.3c1.3,3.5,1.3,7.4,0,10.9l24.5,15.1c0.9-0.7,1.7-1.5,2.6-2.1
			c6.8-4.7,16.1-3,20.8,3.7c4.7,6.8,3,16.1-3.7,20.8c-6.8,4.7-16.1,3-20.8-3.7c-2.7-3.9-3.4-8.8-1.9-13.2c0.2-0.5,0.1-0.8-0.4-1.1
			C72.7,94.8,65,90,57.2,85.2c-0.5-0.3-0.8-0.2-1.2,0.1c-3.9,4-9.7,5.4-15,3.6c-5.3-1.6-9.3-6.1-10.2-11.6
			c-1.5-8.1,3.9-15.9,12.1-17.3c0.3-0.1,0.6-0.1,0.9-0.1c4.6-0.6,9.1,1,12.3,4.3c0.2,0.3,0.7,0.4,1,0.2c0,0,0.1,0,0.1-0.1
			c7.8-4.8,15.5-9.6,23.3-14.4c0.4-0.2,0.6-0.6,0.4-1c0,0,0-0.1,0-0.1c-2.6-7.8,1.6-16.3,9.5-18.9s16.3,1.6,18.9,9.5
			s-1.6,16.3-9.5,18.9c-0.8,0.3-1.6,0.5-2.5,0.6c-4.6,0.8-9.2-0.7-12.5-3.9C84.5,54.6,84.3,54.4,84.1,54.1 M85.6,44.1
			c0,5.2,4.2,9.5,9.4,9.5c5.2,0,9.5-4.2,9.5-9.4s-4.2-9.5-9.4-9.5c0,0,0,0-0.1,0C89.8,34.6,85.6,38.9,85.6,44.1 M36,74.7
			c0,5.2,4.2,9.5,9.4,9.5S55,80,55,74.8c0-5.2-4.2-9.5-9.4-9.5c-5.2-0.1-9.5,4.1-9.5,9.3C36.1,74.6,36.1,74.7,36,74.7 M85.6,105.4
			c0,5.2,4.2,9.5,9.4,9.5s9.5-4.2,9.5-9.4c0-5.2-4.1-9.4-9.3-9.5c-5.2-0.1-9.5,4-9.7,9.2C85.6,105.2,85.6,105.3,85.6,105.4"/>
	</g>
</g>
</svg>
