<?xml version="1.0" encoding="utf-8"?>
<!-- Generator: Adobe Illustrator 26.5.0, SVG Export Plug-In . SVG Version: 6.00 Build 0)  -->
<svg version="1.1" id="레이어_1" xmlns="http://www.w3.org/2000/svg" xmlns:xlink="http://www.w3.org/1999/xlink" x="0px"
	 y="0px" viewBox="0 0 151 151" style="enable-background:new 0 0 151 151;" xml:space="preserve">
<style type="text/css">
	.st0{fill:#FFF100;}
</style>
<path class="st0" d="M0.1-0.8v152.8H152V-0.8H0.1z M102.4,111.1c-0.5,0.4-1.2,0.6-1.8,0.7s-1.3,0.1-1.9,0c-6.6,0-13.1,0-19.7,0
	c-0.4,0-0.8,0-1.2-0.1c-1-0.3-1.7-1.2-1.7-2.2c0-0.1,0-0.3,0-0.4c0.1-1.1,1-1.9,2.1-2c1.5,0,3,0,4.5,0c2.3,0,4.6,0,6.9,0
	c3.7,0,7.4,0,11.1-0.1c1,0,1.9,0.6,2.2,1.5c0.4,0.6,0.3,1.3,0,1.9C102.8,110.7,102.6,110.9,102.4,111.1z M113.2,62.1
	c-0.5,0.6-1,1.1-1.6,1.7c-3.4,3.8-6.9,7.6-10.4,11.3c-0.5,0.5-0.9,1-1.4,1.5c-7.6,8.3-15.1,16.5-22.7,24.8c-0.2,0.3-0.5,0.6-0.8,0.9
	c-1.7,1.8-4,3-6.4,3.4c-0.1,0-0.2,0.1-0.3,0.1c-0.4,0-0.7,0.1-1.1,0.1v0h-0.1c0,0,0,0,0.1,0c-1.2-0.1-2.4-0.3-3.5-0.5
	c-2.3-0.4-4.6,0.4-6.2,2c-1.2,1.1-2.3,2.2-3.4,3.4c-0.6,0.7-1.5,1-2.4,1c-4.8,0-9.5,0-14.3,0c-1.1,0.1-2.1-0.5-2.5-1.5
	c-0.5-1-0.2-2.1,0.7-2.8c3.6-3.6,7.2-7.1,10.9-10.7c1.4-1.3,2.2-3.1,2.3-5c0-0.6,0-1.2-0.2-1.8c-0.3-1-0.4-2-0.3-3
	c0-3,1.3-5.9,3.5-7.9c2.2-2,4.4-4,6.6-6c1.2-1,2.3-2.1,3.5-3.1c6.3-5.6,12.6-11.2,19-16.9c4.1-3.6,8.2-7.3,12.3-10.9
	c3.5-3.2,8.8-3,12,0.4c2.3,2.4,4.6,4.9,6.8,7.4C116.6,53.4,116.6,58.8,113.2,62.1z"/>
</svg>
