<?xml version="1.0" encoding="utf-8"?>
<!-- Generator: Adobe Illustrator 26.5.0, SVG Export Plug-In . SVG Version: 6.00 Build 0)  -->
<svg version="1.1" id="레이어_1" xmlns="http://www.w3.org/2000/svg" xmlns:xlink="http://www.w3.org/1999/xlink" x="0px"
	 y="0px" viewBox="0 0 151 151" style="enable-background:new 0 0 151 151;" xml:space="preserve">
<style type="text/css">
	.st0{fill:#FFFFFF;}
	.st1{fill:#1A1311;}
</style>
<g id="그룹_34" transform="translate(-396 3108)">
	<g id="그룹_26" transform="translate(-1483.421 -3009.421)">
		<g id="그룹_25" transform="translate(1915.502 -58.568)">
			<g>
				<g id="그룹_24">
					<path id="패스_8" class="st0" d="M32.5,65.9l0-0.1c0.4,0,0.8-0.1,1.2-0.1c0.1,0,0.2,0,0.3-0.1c2.8-0.5,5.3-2,7.1-4.2
						c7.6-8.3,15.1-16.5,22.7-24.8c4.4-4.8,8.9-9.7,13.3-14.5c3.4-3.3,3.4-8.7,0.2-12.1c-2.2-2.5-4.5-5-6.8-7.4
						c-3.2-3.4-8.5-3.6-12-0.4c-4.1,3.6-8.2,7.3-12.3,10.9C39.8,18.8,33.5,24.4,27.2,30c-3.4,3-6.8,6-10.1,9.2
						c-3,2.7-4.2,6.9-3.2,10.8c0.6,2.5-0.2,5.1-2.1,6.9C8.2,60.4,4.6,64,0.9,67.5c-0.9,0.7-1.2,1.8-0.7,2.8c0.4,1,1.4,1.6,2.5,1.5
						c4.8,0,9.5,0,14.3,0c0.9,0,1.8-0.3,2.4-1c1.1-1.2,2.2-2.3,3.4-3.4c1.6-1.6,3.9-2.4,6.2-2C30.1,65.6,31.3,65.8,32.5,65.9
						 M53.5,67.1L53.5,67.1c-2.3,0-4.6,0-6.9,0c-1.5,0-3,0-4.5,0c-1.1,0.1-2,0.9-2.1,2c-0.1,1.1,0.6,2.2,1.7,2.5
						c0.4,0.1,0.8,0.1,1.2,0.1c6.6,0,13.1,0,19.7,0c0.6,0.1,1.3,0,1.9,0c0.7-0.1,1.3-0.3,1.8-0.7c0.7-0.6,1-1.6,0.5-2.5
						c-0.3-0.9-1.2-1.5-2.2-1.5C60.9,67.1,57.2,67.1,53.5,67.1"/>
					<path id="패스_9" class="st1" d="M32.5,65.9c-1.2-0.2-2.4-0.3-3.5-0.5c-2.3-0.4-4.6,0.3-6.2,2c-1.2,1.1-2.3,2.2-3.4,3.4
						c-0.6,0.7-1.5,1-2.4,1c-4.8,0-9.5,0-14.3,0c-1.1,0.1-2.1-0.5-2.5-1.5c-0.4-1-0.1-2.1,0.7-2.8c3.6-3.6,7.2-7.1,10.9-10.7
						c1.9-1.7,2.7-4.4,2.1-6.9c-1-3.9,0.2-8.1,3.2-10.8C20.4,36,23.8,33,27.2,30c6.3-5.6,12.6-11.2,18.9-16.8
						c4.1-3.6,8.2-7.3,12.3-10.9c3.4-3.1,8.8-2.9,12,0.4c2.3,2.4,4.6,4.8,6.8,7.4c3.3,3.4,3.2,8.8-0.2,12.1
						c-4.4,4.8-8.8,9.7-13.3,14.5c-7.6,8.3-15.1,16.5-22.7,24.8c-1.8,2.2-4.3,3.7-7.1,4.2c-0.1,0-0.2,0.1-0.3,0.1
						c-0.4,0-0.8,0.1-1.2,0.1L32.5,65.9 M39.8,56c0.1-0.1,0.3-0.3,0.4-0.5c8.2-8.9,16.4-17.9,24.5-26.8c3-3.3,6.1-6.6,9.1-10
						c1.4-1.5,1.5-3.8,0.1-5.3c-2.3-2.5-4.6-5-6.9-7.5c-1.5-1.6-4-1.7-5.6-0.2c0,0,0,0,0,0c-2.4,2.1-4.7,4.2-7,6.2L29.9,33.8
						c-2.2,1.9-4.4,3.9-6.5,5.8L39.8,56 M36.3,59.7L19.7,43.1c-1.3,1.4-1.8,3.4-1.4,5.2c0.5,1.8,0.5,3.8,0.2,5.6
						c-0.4,1.4-1,2.8-1.5,4.3c1.3,1.3,2.6,2.6,4,4c0.2,0.1,0.5,0.2,0.7,0.1c2.7-1.6,6-2.1,9.1-1.3C32.7,61.5,34.8,61,36.3,59.7
						 M17.7,65.8l-4-4l-5.2,5.4c2.1,0,4.3-0.1,6.6,0C16.1,67.3,17.2,66.7,17.7,65.8"/>
					<path id="패스_10" class="st1" d="M53.5,67.1c3.7,0,7.4,0,11.1,0c1,0,1.9,0.5,2.2,1.5c0.4,0.8,0.2,1.9-0.5,2.5
						c-0.5,0.4-1.2,0.6-1.8,0.7c-0.6,0.1-1.3,0.1-1.9,0c-6.6,0-13.1,0-19.7,0c-0.4,0-0.8,0-1.2-0.1c-1.1-0.3-1.8-1.4-1.7-2.5
						c0.1-1.1,1-2,2.1-2c1.5,0,3,0,4.5,0C48.9,67.1,51.2,67.1,53.5,67.1L53.5,67.1z"/>
				</g>
			</g>
		</g>
	</g>
</g>
</svg>
